<svg xmlns="http://www.w3.org/2000/svg" viewBox="0 0 64 64">
  <defs>
    <linearGradient id="g" x1="0" y1="0" x2="1" y2="1">
      <stop offset="0" stop-color="#3b82f6"/>
      <stop offset="1" stop-color="#f59e0b"/>
    </linearGradient>
  </defs>
  <rect width="64" height="64" rx="14" fill="url(#g)"/>
  <path d="M20 38c0 10 8 18 18 18 5 0 9-2 12-5-3 1-6 1-9 0-9-3-21-12-21-23 0-3 1-6 3-8-2 2-3 5-3 8z" fill="rgba(255,255,255,0.85)"/>
  <path d="M36 12c4 2 7 5 9 9-4-2-7-2-11 0 1-4 2-7 2-9z" fill="rgba(255,255,255,0.85)"/>
</svg>
